<?xml version="1.0" encoding="iso-8859-1"?>
<!-- Uploaded to: SVG Repo, www.svgrepo.com, Generator: SVG Repo Mixer Tools -->
<!DOCTYPE svg PUBLIC "-//W3C//DTD SVG 1.1//EN" "http://www.w3.org/Graphics/SVG/1.1/DTD/svg11.dtd">
<svg fill="#000000" version="1.1" id="Capa_1" xmlns="http://www.w3.org/2000/svg" xmlns:xlink="http://www.w3.org/1999/xlink" 
	 width="800px" height="800px" viewBox="0 0 611.993 611.993"
	 xml:space="preserve">
<g>
	<g>
		<path d="M310.533,34.854c-156.056,0-282.575,126.499-282.575,282.565c0,156.084,126.509,282.592,282.575,282.592
			c156.056,0,282.593-126.498,282.593-282.592C593.126,161.353,466.589,34.854,310.533,34.854z M331.343,536.577v-34.734
			c0-11.482-9.317-20.799-20.81-20.799c-11.493,0-20.781,9.316-20.781,20.799v34.734c-104.845-9.869-188.49-93.523-198.358-198.369
			h34.742c11.492,0,20.781-9.307,20.781-20.799c0-11.483-9.298-20.791-20.781-20.791H91.394
			c9.868-104.835,93.504-188.481,198.358-198.349v34.743c0,11.482,9.298,20.8,20.781,20.8c11.492,0,20.81-9.317,20.81-20.8V98.279
			c104.845,9.868,188.49,93.504,198.339,198.349h-34.723c-11.492,0-20.791,9.308-20.791,20.791c0,11.492,9.299,20.799,20.791,20.799
			h34.723C519.823,443.053,436.188,526.698,331.343,536.577z"/>
		<path d="M415.834,286.228H347.08c-7.978-9.327-19.337-15.481-32.254-16.63l-61.593-86.666c-9.963-14.076-29.471-17.324-43.48-7.37
			c-14.028,9.973-17.333,29.443-7.352,43.49l61.517,86.6c-0.94,3.78-1.605,7.684-1.605,11.758c0,26.67,21.588,48.268,48.22,48.268
			c14.702,0,27.695-6.725,36.557-17.078h68.753c17.22,0,31.19-13.951,31.19-31.189C447.023,300.18,433.053,286.228,415.834,286.228z
			"/>
		<path d="M154.933,32.403c-13.078-13.069-30.81-20.42-49.302-20.42c-18.492,0-36.233,7.342-49.302,20.411l-35.92,35.92
			c-27.202,27.23-27.22,71.356,0,98.586l3.191,3.191L158.124,35.604L154.933,32.403z"/>
		<path d="M605.625,73.262l-45.826-45.826c-8.472-8.481-22.233-8.481-30.696-0.009l-37.164,37.145l76.561,76.532l37.126-37.136
			C614.116,95.477,614.116,81.743,605.625,73.262z"/>
	</g>
</g>
</svg>