<?xml version="1.0" encoding="iso-8859-1"?>
<!-- Generator: Adobe Illustrator 19.0.0, SVG Export Plug-In . SVG Version: 6.00 Build 0)  -->
<svg version="1.1" id="Capa_1" xmlns="http://www.w3.org/2000/svg" xmlns:xlink="http://www.w3.org/1999/xlink" x="0px" y="0px"
	 viewBox="0 0 512.001 512.001" style="enable-background:new 0 0 512.001 512.001;" xml:space="preserve">
<g>
	<path style="fill:#579ADD;" d="M268.527,145.299c-1.686,0-3.054,1.367-3.054,3.054v64.08c0,1.686,1.367,3.054,3.054,3.054h75.443
		c1.686,0,3.054,1.367,3.054,3.054v75.443c0,1.686,1.367,3.054,3.054,3.054h64.08c1.686,0,3.054-1.367,3.054-3.054
		c0-3.255,0-149.651,0-145.631c0-1.686-1.367-3.054-3.054-3.054C411.342,145.299,266.134,145.299,268.527,145.299z"/>
	<path style="fill:#579ADD;" d="M263.221,277.598c0-1.557-1.252-2.803-2.808-2.847c-53.117-1.486-95.718-45.012-95.718-98.487
		s42.603-97.001,95.718-98.487c1.556-0.044,2.808-1.29,2.808-2.847V10.71c0-1.584-1.295-2.88-2.879-2.854
		C168.647,9.393,94.789,84.204,94.789,176.265s73.86,166.872,165.554,168.409c1.584,0.027,2.879-1.269,2.879-2.854v-64.222H263.221z
		"/>
</g>
<g>
	<path style="fill:#4987CE;" d="M367.016,293.984v-75.443c0-1.686-1.367-3.054-3.054-3.054H343.97c1.686,0,3.054,1.367,3.054,3.054
		v75.443c0,1.686,1.367,3.054,3.054,3.054h19.992C368.384,297.039,367.016,295.671,367.016,293.984z"/>
	<path style="fill:#4987CE;" d="M285.465,212.434v-64.08c0-1.686,1.367-3.054,3.054-3.054h-19.992c-1.686,0-3.054,1.367-3.054,3.054
		v64.08c0,1.686,1.367,3.054,3.054,3.054h19.992C286.833,215.487,285.465,214.121,285.465,212.434z"/>
	<path style="fill:#4987CE;" d="M114.781,176.265c0-86.08,64.575-157.071,147.924-167.19c-0.521-0.747-1.384-1.236-2.362-1.219
		C168.647,9.393,94.789,84.204,94.789,176.265s73.86,166.872,165.554,168.409c0.977,0.016,1.841-0.472,2.362-1.219
		C179.356,333.336,114.781,262.344,114.781,176.265z"/>
</g>
<path d="M193.58,468.413c12.791-9.605,16.504-28.971,8.521-42.735c-0.38-0.656-0.043-1.495,0.678-1.731
	c1.822-0.597,2.754-0.69,2.747-1.772c-0.068-11.126,0.443-12.065-1.15-12.114c-7.372-0.227-14.815,0.517-22.132-0.421
	c-0.069-0.009-0.137-0.024-0.204-0.045c-13.358-4.178-29.228,0.274-37.721,11.585c-10.044,12.655-9.116,32.641,2.304,44.133
	C158.512,477.977,180.089,479.212,193.58,468.413z M165.854,424.687c8.699-3.171,19.446,1.366,22.77,10.115
	c4.15,9.238-1.01,21.241-10.728,24.3c-9.269,3.488-20.578-2.141-23.29-11.676C151.445,438.403,156.707,427.584,165.854,424.687z"/>
<path d="M56.161,383.282c-4.529,0.049-9.066-0.01-13.595,0.024c-0.664,0.005-1.2,0.547-1.201,1.211
	c-0.038,29.368-0.009,58.727-0.018,88.095c0,0.67,0.545,1.211,1.215,1.205c4.532-0.039,9.066-0.052,13.598,0.005
	c0.671,0.008,1.218-0.53,1.22-1.2c0.057-29.383,0.029-58.765-0.001-88.139C57.377,383.813,56.831,383.275,56.161,383.282z"/>
<path d="M191.131,477.854c-0.612-0.005-1.131,0.448-1.205,1.056c-0.308,2.533-0.713,5.085-1.964,7.348
	c-7.485,15.883-32.97,12.076-34.273-7.286c-0.042-0.624-0.583-1.099-1.208-1.1c-4.615-0.01-9.237,0.017-13.853-0.001
	c-0.666-0.002-1.221,0.534-1.214,1.2c0.33,28.874,35.074,42.597,56.45,25.328c7.76-5.992,12.036-15.618,12.503-25.296
	C206.451,477.4,205.641,477.976,191.131,477.854z"/>
<path d="M91.608,408.555c-6.323,1.071-12.379,3.824-17.172,8.107c-13.134,11.258-14.918,32.957-3.966,46.295
	c16.369,21.152,53.971,15.376,60.714-12.522c1.988-8.556,1.02-17.937-3.457-25.585C120.742,412.42,105.467,406.006,91.608,408.555z
	 M107.781,457.134c-8.443,5.813-21.486,2.682-25.972-6.648c-5.751-9.83,0.337-23.923,11.533-26.248
	c7.24-1.845,15.489,1.183,19.588,7.495C118.458,439.749,116.113,451.975,107.781,457.134z"/>
<path d="M391.461,431.145c0.468,0.462,1.217,0.483,1.694,0.031c3.256-3.079,6.43-6.247,9.596-9.42
	c0.45-0.451,0.479-1.179,0.055-1.653c-16.081-17.993-42.783-14.391-54.361,1.29c-10.809,13.797-8.454,35.935,5.527,46.713
	c14.051,11.661,37.223,9.747,48.835-4.421c0.391-0.477,0.339-1.178-0.099-1.611c-9.51-9.437-10.159-10.757-11.359-9.422
	c-5.3,5.897-13.823,9.28-21.563,6.452c-9.167-2.978-14.103-14.011-10.962-22.984C361.824,425.568,377.07,416.931,391.461,431.145z"
	/>
<path d="M281.266,416.407c-15.296,13.358-14.949,41.115,1.896,53.066c14.885,10.339,36.799,7.557,49.5-5.105
	c0.478-0.476,0.451-1.259-0.04-1.721c-9.709-9.152-9.76-10.28-11.006-9.091c-12.99,12.391-28.66,9.206-33.888-3.529
	c-1.081-2.632,1.179-1.469,47.663-1.746c0.642-0.004,1.178-0.508,1.206-1.149C338.337,407.197,299.967,399.574,281.266,416.407z
	 M318.259,435.24c-9.943,0.109-19.886,0.124-29.831-0.014c-0.847-0.012-1.425-0.874-1.114-1.661
	c5.128-12.943,19.136-13.436,26.479-8.021c2.703,2.022,4.459,4.94,5.593,8.07C319.671,434.397,319.092,435.231,318.259,435.24z"/>
<path d="M470.617,437.373c-0.086-31.25-29.552-34.776-43.395-23.466c-0.797,0.651-1.981,0.118-1.976-0.911
	c0.048-9.496,0.025-18.992,0.007-28.48c-0.001-0.664-0.538-1.204-1.201-1.208c-4.627-0.026-9.261,0.038-13.889-0.047
	c-0.675-0.012-1.227,0.528-1.226,1.203c0.055,29.382-0.03,58.762,0.045,88.144c0.002,0.668,0.544,1.206,1.212,1.202
	c4.621-0.029,9.248-0.023,13.878-0.014c0.668,0.001,1.208-0.539,1.207-1.207c-0.026-11.396-0.007-22.801-0.007-34.206
	c-0.169-18.59,29.65-20.447,29.062,0.01c0,11.395,0.01,22.799-0.008,34.205c-0.001,0.668,0.54,1.209,1.208,1.207
	c14.653-0.051,15.084,0.4,15.089-1.193C470.659,460.867,470.676,449.114,470.617,437.373z"/>
<path d="M216.871,381.92c-8.056,2.315-9.687,14.592-2.58,18.967c6.415,4.639,16.887-0.153,16.754-8.321
	C231.83,385.122,223.713,379.463,216.871,381.92z"/>
<path d="M227.262,410.078c-4.544-0.023-9.094-0.03-13.638-0.002c-1.797,0.011-1.096-2.611-1.239,62.527
	c-0.002,0.669,0.542,1.211,1.211,1.208c4.546-0.024,9.098-0.038,13.645-0.004c0.669,0.005,1.214-0.534,1.214-1.203
	C228.512,407.176,228.889,410.086,227.262,410.078z"/>
<path d="M267.04,410.064c-6.121,0.002-7.42,0.37-7.434-1.168c-0.168-17.909,0.513-18.417-1.201-18.435
	c-4.575-0.048-9.142-0.067-13.711,0.011c-0.66,0.011-1.188,0.552-1.188,1.212c0.004,5.717-0.024,11.434,0.019,17.158
	c0.005,0.668-0.532,1.213-1.2,1.215c-6.036,0.012-7.243-0.277-7.236,1.24c0.057,12.166-0.359,13.086,1.275,13.066
	c1.992-0.025,3.984-0.022,5.977-0.01c0.666,0.004,1.202,0.547,1.198,1.213c-0.088,15.674,0.001,31.348-0.04,47.022
	c-0.002,0.668,0.538,1.208,1.206,1.207c4.547-0.007,9.095-0.006,13.642,0.016c0.668,0.003,1.211-0.536,1.213-1.204
	c0.108-49.675-0.534-48.245,1.228-48.253c5.984-0.027,7.469,0.351,7.46-1.234C268.174,410.989,268.679,410.064,267.04,410.064z"/>
<path d="M350.079,304.178h64.079c5.818,0,10.551-4.733,10.551-10.552v-145.63c0-5.818-4.732-10.551-10.551-10.551h-55.39
	c-4.141,0-7.497,3.356-7.497,7.497c0,4.141,3.356,7.497,7.497,7.497h50.946v136.744h-55.194v-71c0-5.818-4.732-10.551-10.551-10.551
	h-71V152.44h50.811c4.141,0,7.497-3.356,7.497-7.497c0-4.141-3.356-7.497-7.497-7.497h-55.254c-5.818,0-10.552,4.732-10.552,10.551
	v64.079c0,5.818,4.733,10.552,10.552,10.552h70.999v70.999C339.527,299.445,344.26,304.178,350.079,304.178z"/>
<path d="M260.217,351.813c0.06,0.001,0.118,0.001,0.177,0.001c5.832,0,10.324-4.784,10.324-10.35v-64.221
	c0-5.643-4.436-10.184-10.095-10.341c-42.373-1.187-78.882-32.24-86.812-73.839c-0.775-4.067-4.702-6.739-8.768-5.961
	c-4.067,0.775-6.735,4.701-5.961,8.768c8.864,46.506,48.177,82.361,96.641,85.798v55.003
	c-85.036-3.943-153.438-75.084-153.438-160.763S170.689,19.087,255.724,15.144v55.002c-48.507,3.412-88.948,39.812-97.053,88.092
	c-0.686,4.083,2.069,7.949,6.153,8.635c4.084,0.688,7.949-2.069,8.635-6.153c7.17-42.713,43.828-74.592,87.166-75.805
	c5.659-0.16,10.093-4.702,10.093-10.341V10.352c0-2.759-1.129-5.451-3.097-7.387c-1.989-1.956-4.574-3.021-7.405-2.963
	C165.153,1.596,87.292,78.962,87.292,175.908C87.292,272.818,165.106,350.218,260.217,351.813z"/>
<g>
</g>
<g>
</g>
<g>
</g>
<g>
</g>
<g>
</g>
<g>
</g>
<g>
</g>
<g>
</g>
<g>
</g>
<g>
</g>
<g>
</g>
<g>
</g>
<g>
</g>
<g>
</g>
<g>
</g>
</svg>
